<svg width="303" height="49" viewBox="0 0 303 49" fill="none" xmlns="http://www.w3.org/2000/svg">
<path d="M16.8 39.56C14.5867 39.56 12.5333 39.2133 10.64 38.52C8.74667 37.8 7.10667 36.7867 5.72 35.48C4.36 34.1733 3.29333 32.64 2.52 30.88C1.74667 29.0933 1.36 27.1333 1.36 25C1.36 22.8667 1.74667 20.92 2.52 19.16C3.29333 17.3733 4.37333 15.8267 5.76 14.52C7.14667 13.2133 8.78667 12.2133 10.68 11.52C12.6 10.8 14.6933 10.44 16.96 10.44C19.6 10.44 21.96 10.88 24.04 11.76C26.12 12.64 27.84 13.9067 29.2 15.56L24.16 20.12C23.2 19.08 22.16 18.3067 21.04 17.8C19.9467 17.2667 18.72 17 17.36 17C16.16 17 15.0667 17.1867 14.08 17.56C13.0933 17.9333 12.2533 18.48 11.56 19.2C10.8667 19.8933 10.32 20.7333 9.92 21.72C9.54667 22.68 9.36 23.7733 9.36 25C9.36 26.1733 9.54667 27.2533 9.92 28.24C10.32 29.2267 10.8667 30.08 11.56 30.8C12.2533 31.4933 13.08 32.04 14.04 32.44C15.0267 32.8133 16.1067 33 17.28 33C18.4533 33 19.6 32.8133 20.72 32.44C21.84 32.04 22.9733 31.3733 24.12 30.44L28.56 36C26.96 37.1467 25.1067 38.0267 23 38.64C20.8933 39.2533 18.8267 39.56 16.8 39.56ZM21.56 34.96V24.4H28.56V36L21.56 34.96ZM40.6613 39V27.16L42.5013 31.92L29.9812 11H38.3413L47.3813 26.16H42.5412L51.6213 11H59.3013L46.8213 31.92L48.5813 27.16V39H40.6613ZM61.1984 39V11H67.7184L79.3184 30.04H75.8784L87.1584 11H93.6784L93.7584 39H86.4784L86.3984 22.08H87.6384L79.1984 36.24H75.6784L66.9984 22.08H68.5184V39H61.1984Z" fill="#F6A010"/>
<path d="M99.3625 39V11H112.163C114.723 11 116.923 11.4133 118.763 12.24C120.629 13.0667 122.069 14.2667 123.083 15.84C124.096 17.3867 124.603 19.2267 124.603 21.36C124.603 23.4667 124.096 25.2933 123.083 26.84C122.069 28.3867 120.629 29.5867 118.763 30.44C116.923 31.2667 114.723 31.68 112.163 31.68H103.763L107.283 28.24V39H99.3625ZM107.283 29.08L103.763 25.44H111.683C113.336 25.44 114.563 25.08 115.363 24.36C116.189 23.64 116.603 22.64 116.603 21.36C116.603 20.0533 116.189 19.04 115.363 18.32C114.563 17.6 113.336 17.24 111.683 17.24H103.763L107.283 13.6V29.08ZM128.464 39V11H136.384V32.72H149.744V39H128.464ZM149.792 39L162.152 11H169.952L182.352 39H174.112L164.432 14.88H167.552L157.872 39H149.792ZM156.552 33.56L158.592 27.72H172.272L174.312 33.56H156.552ZM184.597 39V11H191.117L206.557 29.64H203.477V11H211.237V39H204.717L189.277 20.36H192.357V39H184.597ZM216.823 39V11H223.343L238.783 29.64H235.703V11H243.463V39H236.943L221.503 20.36H224.583V39H216.823ZM256.33 21.84H269.33V27.76H256.33V21.84ZM256.89 32.88H271.53V39H249.05V11H271.01V17.12H256.89V32.88ZM275.925 39V11H288.725C291.285 11 293.485 11.4133 295.325 12.24C297.192 13.0667 298.632 14.2667 299.645 15.84C300.658 17.3867 301.165 19.2267 301.165 21.36C301.165 23.4667 300.658 25.2933 299.645 26.84C298.632 28.36 297.192 29.5333 295.325 30.36C293.485 31.16 291.285 31.56 288.725 31.56H280.325L283.845 28.24V39H275.925ZM293.245 39L286.285 28.8H294.725L301.725 39H293.245ZM283.845 29.08L280.325 25.44H288.245C289.898 25.44 291.125 25.08 291.925 24.36C292.752 23.64 293.165 22.64 293.165 21.36C293.165 20.0533 292.752 19.04 291.925 18.32C291.125 17.6 289.898 17.24 288.245 17.24H280.325L283.845 13.6V29.08Z" fill="#313131"/>
</svg>
